<?xml version="1.0" encoding="utf-8"?>
<!-- Generator: Adobe Illustrator 26.0.3, SVG Export Plug-In . SVG Version: 6.00 Build 0)  -->
<svg version="1.1" id="Layer_1" xmlns="http://www.w3.org/2000/svg" xmlns:xlink="http://www.w3.org/1999/xlink" x="0px" y="0px"
	 viewBox="0 0 2000 2000" style="enable-background:new 0 0 2000 2000;" xml:space="preserve">
<g>
	<path d="M682.5,1016.8h24.8c0.6,0,1.1-0.5,1.1-1.1v-144c0-0.6-0.5-1.1-1.1-1.1h-24.8c-0.6,0-1.1,0.5-1.1,1.1v144
		C681.4,1016.3,681.9,1016.8,682.5,1016.8z"/>
	<path d="M694.9,815.4c-10.5,0-19,8.5-19,19c0,10.5,8.5,19,19,19c10.5,0,19-8.5,19-19C713.9,823.9,705.3,815.4,694.9,815.4z"/>
	<path d="M1487.2,987.5l-37.8-116.2c-0.1-0.5-0.6-0.8-1-0.8h-26.7c-0.8,0-1.3,0.7-1,1.5l49.6,144.1c0.2,0.4,0.6,0.7,1,0.7h32.9
		c0.5,0,0.9-0.3,1-0.7l49.6-144.1c0.2-0.7-0.3-1.5-1-1.5h-26.4c-0.5,0-0.9,0.3-1,0.7L1487.2,987.5z"/>
	<path d="M348.1,887.8L348.1,887.8c0-36.4-29.5-66-66-66h-73.7c-0.6,0-1.1,0.5-1.1,1.1v192.8c0,0.6,0.5,1.1,1.1,1.1h24.8
		c0.6,0,1.1-0.5,1.1-1.1v-61.9l47.9,0c0.2,0,0.4,0,0.6,0l36.1,62.5c0.2,0.3,0.6,0.6,1,0.6h28c0.8,0,1.4-0.9,1-1.7l-38.9-67.5
		C332.5,937.2,348.1,914.4,348.1,887.8z M234.3,845.8h45c23.2,0,42,18.8,42,42l0,0c0,23.2-18.8,42-42,42h-45V845.8z"/>
	<path d="M594.6,867.8c-25.8,0-45.1,14.1-51.5,29.9h-2.7v-25.9c0-0.6-0.5-1.1-1.1-1.1h-24.8c-0.6,0-1.1,0.5-1.1,1.1v192.7
		c0,0.6,0.5,1.1,1.1,1.1h24.8c0.6,0,1.1-0.5,1.1-1.1v-73h2.3c6.5,17.1,25.2,28.2,51.9,28.2c45.6,0,68.5-35.9,68.5-75.9
		C663,901.4,638.5,867.8,594.6,867.8z M588.3,995.6c-32.5,0-47.9-21.8-47.9-51.9c0-29.9,16.5-51.9,47.9-51.9
		c30.8,0,47.9,22.1,47.9,51.9C636.2,973.8,620.2,995.6,588.3,995.6z"/>
	<path d="M850,898.8h-3c-6-16.2-25.5-31-51.9-31c-44,0-68.5,33.6-68.5,75.9c0,40,22.9,75.9,68.5,75.9c27.7,0,46.7-11.9,52.6-30h2.3
		v26.1c0,0.6,0.5,1.1,1.1,1.1h24.8c0.6,0,1.1-0.5,1.1-1.1V822.9c0-0.6-0.5-1.1-1.1-1.1h-24.8c-0.6,0-1.1,0.5-1.1,1.1V898.8z
		 M801.4,995.6c-31.9,0-47.9-21.8-47.9-51.9c0-29.9,17.1-51.9,47.9-51.9c31.4,0,47.9,22.1,47.9,51.9
		C849.4,973.8,834,995.6,801.4,995.6z"/>
	<path d="M1350.8,867.8c-41.7,0-54.4,25.9-58.8,37.2c-2,5-2.8,10.6-3.1,13c-0.1,0.7,0.4,1.2,1.1,1.2l25.9,0c0.5,0,1-0.4,1.1-0.9
		c0.3-2.1,1.3-7.6,3.3-11.3c2.9-5.5,9.1-15.2,31.8-15.2c31.5,0,37.1,26,37.1,39.3l-53.1,0c-33.1,0-50.5,20.3-50.5,42.7
		c0,25.8,18.1,46.1,52.5,46.1c40.7,0,49.4-26.7,49.4-26.7l1.7,0l-0.1,22.7c0,0.6,0.5,1.1,1.1,1.1l24.7,0c0.6,0,1.1-0.5,1.1-1.1
		l0-84.7C1415.9,899.4,1395.7,867.8,1350.8,867.8z M1343.5,995.7c-20.3,0-31.1-9.3-31.1-22.6c0-9.4,7.6-19.9,24.6-19.9l52.1,0.1
		C1388.8,960.9,1379.9,995.7,1343.5,995.7z"/>
	<path d="M426.4,867.8c-41.7,0-54.4,25.9-58.8,37.2c-2,5-2.8,10.6-3.1,13c-0.1,0.7,0.4,1.2,1.1,1.2l25.9,0c0.5,0,1-0.4,1.1-0.9
		c0.3-2.1,1.3-7.6,3.3-11.3c2.9-5.5,9.1-15.2,31.8-15.2c31.5,0,37.1,26,37.1,39.3l-53.1,0c-33.1,0-50.5,20.3-50.5,42.7
		c0,25.8,18.1,46.1,52.5,46.1c40.7,0,49.4-26.7,49.4-26.7l1.7,0l-0.1,22.7c0,0.6,0.5,1.1,1.1,1.1l24.7,0c0.6,0,1.1-0.5,1.1-1.1
		l0-84.7C491.6,899.4,471.4,867.8,426.4,867.8z M419.1,995.7c-20.3,0-31.1-9.3-31.1-22.6c0-9.4,7.6-19.9,24.6-19.9l52.1,0.1
		C464.5,960.9,455.5,995.7,419.1,995.7z"/>
	<path d="M1108.8,822.7l-39.1,163.6l-42.3-163.6c-0.1-0.5-0.6-0.8-1.1-0.8H1007c-0.5,0-1,0.3-1.1,0.8l-42.3,163.6l-39.1-163.6
		c-0.1-0.5-0.6-0.9-1.1-0.9l-26.8,0c-0.7,0-1.2,0.7-1.1,1.4l49.4,192.8c0.1,0.5,0.6,0.8,1.1,0.8l31.8,0c0.5,0,0.9-0.3,1.1-0.8
		l37.9-132l37.9,132c0.1,0.5,0.6,0.8,1.1,0.8l31.8,0c0.5,0,0.9-0.3,1.1-0.8l49.4-192.8c0.2-0.7-0.3-1.4-1.1-1.4l-26.8,0
		C1109.4,821.8,1108.9,822.2,1108.8,822.7z"/>
	<path d="M1741.8,897.7h-2.7v-25.9c0-0.6-0.5-1.1-1.1-1.1h-24.8c-0.6,0-1.1,0.5-1.1,1.1v144c0,0.6,0.5,1.1,1.1,1.1h24.8
		c0.6,0,1.1-0.5,1.1-1.1v-72c0,0,0,0,0,0c0-29.9,16.5-51.9,47.9-51.9c1.5,0,3,0.1,4.5,0.2c0.6,0,1.2-0.4,1.2-1.1V869
		c0-0.6-0.5-1.1-1.1-1.1C1766.6,868.5,1748,882.3,1741.8,897.7z"/>
	<path d="M1200.5,867.7c-38.2,0-69.2,26.4-69.2,76c0,52.2,32.1,76,71.6,76c31,0,57.4-14.3,65.9-47.5c0.2-0.7-0.4-1.4-1.1-1.4h-25.2
		c-0.5,0-0.9,0.3-1,0.7c-6.9,18.4-21.4,25-38.4,25c-22.9,0-42.9-13-45.2-45.1h110.6c0.6,0,1.1-0.5,1.1-1c0.1-2.2,0.2-4.4,0.2-6.6
		C1269.7,890.2,1238.7,867.7,1200.5,867.7z M1158.8,929.2c4.5-26.4,21.5-37.3,41.8-37.3c20.4,0,37.5,9.6,41.9,37.3H1158.8z"/>
	<path d="M1624.8,867.7c-38.2,0-69.2,26.4-69.2,76c0,52.2,32.1,76,71.6,76c31,0,57.4-14.3,65.9-47.5c0.2-0.7-0.4-1.4-1.1-1.4h-25.2
		c-0.5,0-0.9,0.3-1,0.7c-6.9,18.4-21.4,25-38.4,25c-22.9,0-42.9-13-45.2-45.1h110.6c0.6,0,1.1-0.5,1.1-1c0.1-2.2,0.2-4.4,0.2-6.6
		C1694,890.2,1663,867.7,1624.8,867.7z M1583,929.2c4.5-26.4,21.5-37.3,41.8-37.3c20.4,0,37.5,9.6,41.9,37.3H1583z"/>
</g>
<path d="M1325.5,1122c-5-8.2-15.8-22-18.5-25.5l2.4-12.8c0.2-0.9-0.1-1.9-0.7-2.6c-0.6-0.7-1.5-1.2-2.4-1.2l-11.4-0.1
	c-1.6-0.1-2.9,1.1-3.2,2.6l-4.6,24.7c-12,50.1-23.3,60.7-30.8,60.7c-4.6,0-7.8-2.4-8.9-14.3c-0.7-7.8-0.1-16.5,0.4-25.9
	c0.3-5.4,0.7-11,0.8-16.5c0-2.6,0.3-7.1,0.4-9.3l0-0.5h18.4c1.7,0,3.1-1.4,3.2-3.1l0.4-8.8c0-0.9-0.3-1.7-0.9-2.4
	c-0.6-0.6-1.4-1-2.3-1H1250l0-0.6c0.3-7.2,1-17.5,1.2-21.5c0.1-0.9-0.3-1.7-0.9-2.4c-0.6-0.6-1.5-1-2.3-1l-12.1,0c0,0,0,0,0,0
	c-1.7,0-3.1,1.3-3.2,3.1l-1,22.4h-14.3c-1.7,0-3.1,1.4-3.2,3.1l-0.3,8.8c0,0.9,0.3,1.7,0.9,2.4c0.6,0.6,1.4,1,2.3,1l14.9,0l0,0.6
	c-0.1,2-0.4,6.6-0.6,9.6c-0.2,3.8-0.5,8-0.8,12.3c-0.7,9.1-1.4,18.4-1.3,27.1l0,0.1l-0.1,0.1c-3.1,6.2-9.6,16.6-18.7,16.6
	c-2.2,0-8.9,0-10.2-14.3c-0.7-7.6,0-15.1,0.7-22.4c0.7-7.5,1.4-15.2,0.7-23.3c-1.3-14.4-10.7-23.6-24-23.6
	c-16.4,0-26.8,15.1-31.8,25l0-1c0.3-6.1,0.9-15,1.2-18.5c0.1-0.9-0.2-1.8-0.8-2.4c-0.6-0.7-1.5-1-2.4-1l-12.1,0c0,0,0,0,0,0
	c-1.7,0-3.1,1.3-3.2,3.1c-0.3,6.4-1.1,28.7-1.6,44.3l0,0c0,3.4-15.1,35.4-41.1,35.4c-17.5,0-22.3-13.7-23.5-19.1l1.1,0.2
	c2.3,0.3,4.7,0.4,7.3,0.3c18.6-1,37.1-16.7,36.1-41.2c-0.3-7.3-3.2-13.8-8-18.2c-4.9-4.5-11.6-6.7-19.1-6.4
	c-21.6,1-38.8,25.8-37.5,54.1c0.3,6.9,1.5,13.2,3.5,18.7c-4.1,6.8-8.9,10.4-14.1,10.4c-2.2,0-8.9,0-10.2-14.3
	c-0.7-7.6,0-15.1,0.7-22.4c0.7-7.5,1.4-15.2,0.7-23.3c-1.3-14.4-10.7-23.6-24-23.6c-16,0-25,12.7-28.8,19.7l-0.1-0.6
	c-2.7-11.8-11.6-19.1-23.3-19.1c-16.7,0-26.8,14.8-31.8,24.8l0-0.8c0.3-7.1,0.7-13.8,1.1-18.5c0.1-0.9-0.2-1.8-0.8-2.4
	c-0.6-0.7-1.5-1-2.4-1l-12.1,0c0,0,0,0,0,0c-1.7,0-3.1,1.3-3.2,3c-0.3,6.8-1.2,30.4-1.7,46.6l0,0.2c-0.3,0.7-0.7,1.8-1.2,3
	c-2.2,4.7-15.4,30-39,30c-17.5,0-22.3-13.7-23.5-19.1l1.1,0.2c2.3,0.3,4.7,0.4,7.3,0.3c18.6-1,37.1-16.7,36.1-41.2
	c-0.3-7.3-3.2-13.8-8-18.2c-4.9-4.5-11.6-6.7-19.1-6.4c-21.6,1-38.8,25.8-37.5,54.1c0.2,5.2,1,10,2.2,14.5
	c-2.8,3.7-13.4,16.2-27.1,16.2c-9.6,0-16.5-6.7-20.5-20l-0.1-0.4l0.4-0.2c15-9,37.2-36.9,37.2-68.1c0-23.1-9.4-37-25.2-37
	c-26.3,0-35,42-35,67.6c0,10.2,0.6,19.1,1.8,27.1l0,0.1c-1.7,3.7-14.8,30.3-39.2,30.3c-17.5,0-22.3-13.7-23.5-19.1
	c0,0,2.9,0.5,5.5,0.5c22.4,0,39-17.1,39-39.1c0-21.2-15.9-26.7-25.4-26.7c-23.4,0-40.5,25.9-39.3,54.2c1.2,28.3,17.6,45.9,42.6,45.9
	c25.4,0,39.9-19.7,44.7-27.7l0.3,0.8c6.6,17.7,18.1,26.6,34.3,26.6c18.1,0,29.6-12.1,34.6-18.9c7.3,12.2,19.6,19.2,35.3,19.2
	c20.4,0,33.7-12.7,40.7-21.8l-0.2,16.3c0,0.9,0.3,1.7,0.9,2.3c0.6,0.6,1.4,1,2.3,1H910c1.7,0,3.2-1.4,3.2-3.2l0.1-7
	c0.1-0.8,1.4-19.4,6.3-37.4c4.2-15.6,12.1-34.2,25.5-34.2c4.4,0,8,4.2,8,13.5c0,8-2.3,57.1-2.5,65c0,0.9,0.3,1.7,0.9,2.3
	c0.6,0.6,1.4,1,2.3,1h11.7c1.8,0,3.2-1.4,3.2-3.2c0-3.9,0.1-14.7,0.3-24c0.6-13.3,3.6-26.6,8.1-36.6c5.4-11.8,12.4-18,20.3-18
	c4.4,0,7.4,4.5,7.8,8.9c0.4,4.8-0.1,11.1-0.7,18.4c-0.8,9.4-1.7,20.1-0.8,30.5c0.9,9.7,5.2,26,24.4,26c11.6,0,19.6-8.1,24.3-14.9
	c7.4,9.7,18.7,15.2,32.6,15.2c21.1,0,34.7-13.6,41.4-22.8l-0.2,17.3c0,0.9,0.3,1.7,0.9,2.3c0.6,0.6,1.4,1,2.3,1h11.9
	c1.8,0,3.2-1.4,3.2-3.2l0.1-7c0.1-0.7,5.3-71.6,31.8-71.6c4.4,0,7.4,4.5,7.8,8.9c0.4,4.8-0.1,11.1-0.7,18.4
	c-0.8,9.4-1.7,20-0.8,30.5c0.9,9.7,5.2,26,24.4,26c11.6,0,19.6-8.1,24.4-14.9l0.6-0.9l0.4,1c3.8,9.8,11.2,14.8,21.9,14.8
	c8.2,0,15.7-4.1,22.6-12.1c4.3,5.7,13.4,12.3,26,12.3c21.3,0,35-12.6,35-32.1C1337.5,1141.5,1331.7,1132.1,1325.5,1122z
	 M1292.2,1144c3.9-10,6.6-20,8.4-27.4c2,3.3,4.3,6.7,6.8,10.2c6.1,8.6,12.3,17.5,12.3,25.4c0,7.8-6.2,16.1-17.7,16.1
	c-7,0-12.9-2.6-17.6-7.6C1287.2,1155.8,1289.8,1150.3,1292.2,1144z M1060.9,1136.3c0-11.9,4.6-35.3,19.3-35.3c7.6,0,9.1,6.4,9.3,9.8
	c0.2,4.9-2.8,11.4-7.7,16.6c-5.6,6-12.9,9.4-20.3,9.5l-0.6,0V1136.3z M830.6,1136.3c0-11.9,4.5-35.3,19.3-35.3
	c7.8,0,9.1,6.4,9.3,9.8c0.2,4.9-2.8,11.4-7.7,16.6c-5.6,6-12.9,9.4-20.3,9.5l-0.6,0V1136.3z M764.1,1132.7l-0.8,0.8l-0.1-1.2
	c-0.7-6.6-1.1-14-1.1-22.7c0-13.1,1.7-25.6,4.8-35.2l0,0c3-9.4,6.9-14.6,11-14.6c5.4,0,6.7,6.7,7.2,14
	C787,1099.4,775,1121.5,764.1,1132.7z M710,1110.8c0,16-20.5,26-28,26.1l-0.6,0v-0.6c0-11.9,4.1-35.3,19.8-35.3
	C708.1,1101,710,1107.4,710,1110.8z"/>
</svg>
